<svg xmlns="http://www.w3.org/2000/svg" id="Layer_1" viewBox="0 0 223.6 223.6">
  <path fill="#2775ca" d="M111.8 0a111.8 111.8 0 1 1 0 223.6 111.8 111.8 0 0 1 0-223.6Z"/>
  <path fill="#fff" d="M137.3 33c-2.5-.7-4.6.8-4.6 3.4V43a5 5 0 0 0 3 4.4 70 70 0 0 1 0 131.3c-1.8.7-3 2.4-3 4.4v6.5c0 2.6 2.1 4.1 4.6 3.3a83.9 83.9 0 0 0 0-159.7ZM90.8 36.4c0-2.6-2-4.1-4.6-3.3a83.9 83.9 0 0 0 0 159.7c2.6.8 4.6-.7 4.6-3.3V183a5 5 0 0 0-3-4.4 70 70 0 0 1 0-131.3 5 5 0 0 0 3-4.4v-6.5Z"/>
  <path fill="#fff" d="m140.4 134.8-6.4-2.9c-1.4-.6-3 0-3.8 1.4-3 6-8 10-14.6 10-6 0-10.8-3-14.5-8.9a32.5 32.5 0 0 1-3.5-7.7h17.2c1 0 2-.6 2.6-1.5l4-5.6c1-1.9-.4-4.2-2.5-4.2H95.7a64.5 64.5 0 0 1 0-7.3h19c1.2 0 2.2-.6 2.7-1.5l4-5.6c1-1.9-.4-4.2-2.5-4.2H97.6c3.1-10.1 9.6-16.8 18-16.6 6.3 0 11.3 3.5 14.5 9.2a2.9 2.9 0 0 0 3.6 1.1l6.4-2.8a2.9 2.9 0 0 0 1.4-4c-6-10.7-14.6-16.1-26-16.1a30 30 0 0 0-25 12.3 44.2 44.2 0 0 0-7.7 17h-9.3c-1.1 0-2.1.6-2.6 1.5l-4.1 5.6c-1 1.9.4 4.1 2.6 4.1h11.8a75.7 75.7 0 0 0 0 7.3h-7.7c-1.1 0-2.1.7-2.6 1.6l-4.1 5.6c-1 1.9.4 4.1 2.6 4.1h13.4c4.2 17.6 16.4 29.5 32.8 29.3 11.6 0 20.3-5.8 26.2-17.3.7-1.5 0-3.3-1.4-4Z"/>
</svg>